<?xml version="1.0" encoding="utf-8"?>
<svg id="Livello_1" data-name="Livello 1" viewBox="0 0 330.1 145.05" xmlns="http://www.w3.org/2000/svg">
  <defs>
    <style>.cls-1{fill:#57bfc7;}.cls-2{fill:#50433b;}</style>
  </defs>
  <path class="cls-2" d="M 75.45 78.7 C 72.606 77.625 69.428 79.057 68.35 81.9 C 62.583 97.002 42.63 100.198 32.435 87.652 C 22.239 75.106 29.449 56.229 45.411 53.672 C 49.06 53.088 52.799 53.477 56.25 54.8 C 62.062 57.04 66.595 61.72 68.65 67.6 C 70.036 71.603 75.235 72.605 78.009 69.403 C 79.296 67.918 79.693 65.858 79.05 64 L 79.05 64 C 74.9 52.154 64.244 43.801 51.75 42.6 L 72 23.4 C 75.098 20.481 73.875 15.302 69.797 14.078 C 68.034 13.549 66.123 13.932 64.7 15.1 C 64.6 15.2 64.4 15.3 64.3 15.5 L 39.45 39 L 48.85 15 C 50.216 10.968 46.705 6.969 42.531 7.802 C 40.762 8.155 39.276 9.349 38.55 11 L 24.65 46.8 L 24.65 27.4 C 24.673 23.12 20.054 20.42 16.336 22.54 C 14.747 23.447 13.705 25.077 13.55 26.9 L 13.55 104 C 13.45 104.2 13.55 103.8 13.55 104 C 12.55 106.9 3.35 120.8 3.35 120.8 L 38.05 120.8 C 39.252 117.516 41.125 114.519 43.55 112 C 48.35 107.2 55.75 105.6 55.85 105.5 C 55.95 105.4 60.65 104.2 60.85 104.1 C 69.068 100.705 75.537 94.091 78.75 85.8 C 79.834 82.927 78.345 79.724 75.45 78.7 Z"/>
  <path class="cls-1" d="M 80.45 74.1 C 80.45 79.258 74.867 82.481 70.4 79.902 C 65.933 77.324 65.933 70.876 70.4 68.298 C 71.419 67.71 72.574 67.4 73.75 67.4 C 77.45 67.4 80.45 70.4 80.45 74.1 Z" style="fill: rgb(24, 144, 255);"/>
  <text style="white-space: pre; fill: rgb(51, 51, 51); font-family: Arial, sans-serif; font-size: 28px;" transform="matrix(0.265174, 0, 0, 0.265178, 54.89423, 28.309875)"> </text>
  <path class="cls-1" d="M 132.184 55.406 C 121.24 45.396 103.676 45.396 92.73 55.406 C 90.17 57.743 88.1 60.504 86.627 63.546 C 85.28 66.345 84.529 69.358 84.415 72.424 L 84.415 74.972 L 84.415 74.972 C 84.573 78.031 85.322 81.037 86.627 83.85 C 89.558 90.109 94.931 95.101 101.665 97.824 C 105.096 99.223 108.801 99.95 112.546 99.962 C 116.299 99.999 120.013 99.27 123.426 97.824 C 126.714 96.515 129.69 94.616 132.184 92.235 C 134.698 89.801 136.707 86.959 138.111 83.85 C 139.547 80.645 140.299 77.211 140.323 73.738 C 140.342 70.263 139.589 66.82 138.111 63.628 C 136.713 60.563 134.702 57.773 132.184 55.406 Z M 95.561 67.326 C 96.546 65.369 97.894 63.589 99.542 62.066 C 101.175 60.525 103.092 59.272 105.204 58.366 C 107.49 57.442 109.966 56.994 112.458 57.05 C 114.833 57.026 117.185 57.475 119.357 58.366 C 123.635 60.181 127.072 63.36 129.044 67.326 C 130.037 69.335 130.521 71.529 130.459 73.738 C 130.521 76.055 130.039 78.355 129.044 80.48 C 128.091 82.432 126.773 84.215 125.151 85.74 C 123.499 87.28 121.588 88.557 119.49 89.522 C 117.324 90.44 114.972 90.916 112.59 90.92 C 110.088 90.99 107.603 90.511 105.336 89.522 C 101.081 87.624 97.65 84.434 95.606 80.48 C 94.583 78.36 94.071 76.06 94.101 73.738 C 94.082 71.529 94.581 69.339 95.561 67.326 Z" style="fill: rgb(24, 144, 255);"/>
  <text style="fill: rgb(24, 144, 255); font-family: Arial, sans-serif; font-size: 245.118px; font-weight: 700; letter-spacing: 1.4px; line-height: 44.8px; word-spacing: -5.8px; white-space: pre;" transform="matrix(0.265174, 0, 0, 0.265178, 142.408707, 98.803101)"><tspan style="line-height: 301.684px;">UR</tspan><tspan style="line-height: 416.324px;">SE</tspan></text>
</svg>