<?xml version="1.0" encoding="utf-8"?>
<svg id="Livello_1" data-name="Livello 1" viewBox="0 0 330.1 145.05" xmlns="http://www.w3.org/2000/svg">
  <defs>
    <style>.cls-1{fill:#57bfc7;}.cls-2{fill:#50433b;}</style>
  </defs>
  <path class="cls-1" d="M116.55,51.8a31.79,31.79,0,0,0-44.6,0,32.66,32.66,0,0,0-6.9,9.9,28.88,28.88,0,0,0-2.5,10.8v3.1h0a31,31,0,0,0,2.5,10.8,32.82,32.82,0,0,0,17,17,30.86,30.86,0,0,0,12.3,2.6,28.92,28.92,0,0,0,12.3-2.6,30.71,30.71,0,0,0,9.9-6.8,33.44,33.44,0,0,0,6.7-10.2,32.57,32.57,0,0,0,2.5-12.3,30.75,30.75,0,0,0-2.5-12.3A32,32,0,0,0,116.55,51.8ZM75.15,66.3a22.4,22.4,0,0,1,4.5-6.4,21.84,21.84,0,0,1,6.4-4.5,19.36,19.36,0,0,1,8.2-1.6,18.79,18.79,0,0,1,7.8,1.6A22.23,22.23,0,0,1,113,66.3a17.61,17.61,0,0,1,1.6,7.8,19.36,19.36,0,0,1-1.6,8.2,22.1,22.1,0,0,1-4.4,6.4,24.23,24.23,0,0,1-6.4,4.6,18.87,18.87,0,0,1-7.8,1.7,18,18,0,0,1-8.2-1.7,23.48,23.48,0,0,1-11-11,19.46,19.46,0,0,1-1.7-8.2A18.53,18.53,0,0,1,75.15,66.3Z" style="fill: rgb(24, 144, 255);"/>
  <path class="cls-2" d="M308.45,78.7a5.51,5.51,0,0,0-7.1,3.2,21,21,0,1,1-12.1-27.1,21.22,21.22,0,0,1,12.4,12.8,5.5,5.5,0,1,0,10.4-3.6h0a32.19,32.19,0,0,0-27.3-21.4L305,23.4a5.53,5.53,0,0,0-7.3-8.3c-.1.1-.3.2-.4.4L272.45,39l9.4-24a5.53,5.53,0,0,0-10.3-4l-13.9,35.8V27.4a5.56,5.56,0,0,0-11.1-.5V104c-.1.2,0-.2,0,0-1,2.9-10.2,16.8-10.2,16.8h34.7a25.17,25.17,0,0,1,5.5-8.8c4.8-4.8,12.2-6.4,12.3-6.5s4.8-1.3,5-1.4a32.51,32.51,0,0,0,17.9-18.3,5.48,5.48,0,0,0-3.3-7.1Z"/>
  <path class="cls-2" d="M227,47a5.58,5.58,0,0,0-11.1,0h-.1v54.4h0a5.6,5.6,0,0,0,11.2,0h0V47Z"/>
  <path class="cls-2" d="M199.55,62A34.39,34.39,0,0,0,193,51.8a30.62,30.62,0,0,0-10-7,31.61,31.61,0,0,0-24.7-.1,31,31,0,0,0-16.7,16.7,32.6,32.6,0,0,0-2.4,12.4v54a5.61,5.61,0,0,0,11.2.1h0V74.3a22.13,22.13,0,0,1,1.2-8.1,16.74,16.74,0,0,1,4.1-6.6,19.46,19.46,0,0,1,6.8-4.4,20,20,0,0,1,15.9,0,21.13,21.13,0,0,1,10.9,11.1,20.55,20.55,0,0,1,0,15.9,22.28,22.28,0,0,1-4.5,6.5,26,26,0,0,1-6.4,4.6,16.17,16.17,0,0,1-7.8,1.7h-.9a1.27,1.27,0,0,1-.6-.1,5.45,5.45,0,1,0-.1,10.9h0a.9.9,0,0,0,.5-.1h.9a30.88,30.88,0,0,0,12.4-2.5,32.25,32.25,0,0,0,10-6.8,33.76,33.76,0,0,0,6.7-10A30.75,30.75,0,0,0,202,74.1,30,30,0,0,0,199.55,62Z"/>
  <path class="cls-1" d="M49.45,95.3H48a18,18,0,0,1-7.6-1.7A22.4,22.4,0,0,1,34,89.1a21.48,21.48,0,0,1-4.5-6.6,19.91,19.91,0,0,1-1.7-8.3V53.3h21.6a5.5,5.5,0,1,0,0-11H27.75V32h0v-.2a5.5,5.5,0,1,0-11,0,1.27,1.27,0,0,0,.1.6V76.2A31.88,31.88,0,0,0,19.65,88a33.38,33.38,0,0,0,6.7,9.5,30.79,30.79,0,0,0,9.8,6.4,28.69,28.69,0,0,0,11.9,2.3h1.5a5.4,5.4,0,0,0,5.2-5.7,5.61,5.61,0,0,0-5.3-5.2Z" style="fill: rgb(24, 144, 255);"/>
  <path class="cls-1" d="M313.45,74.1a6.7,6.7,0,1,1-6.7-6.7A6.7,6.7,0,0,1,313.45,74.1Z" style="fill: rgb(24, 144, 255);"/>
</svg>